<svg xmlns="http://www.w3.org/2000/svg" viewBox="0 0 360 640" role="img" aria-labelledby="title desc">
  <title id="title">Cute yellow cartoon dinosaur avatar</title>
  <desc id="desc">An original cute yellow dinosaur style avatar for the photographer contact section.</desc>
  <defs>
    <linearGradient id="bg" x1="0" x2="1" y1="0" y2="1">
      <stop offset="0" stop-color="#f8f1d5"/>
      <stop offset="0.56" stop-color="#dce6cf"/>
      <stop offset="1" stop-color="#9eb2a3"/>
    </linearGradient>
    <linearGradient id="body" x1="0" x2="1" y1="0" y2="1">
      <stop offset="0" stop-color="#ffe48a"/>
      <stop offset="0.5" stop-color="#f3bf43"/>
      <stop offset="1" stop-color="#d9992d"/>
    </linearGradient>
    <filter id="shadow" x="-30%" y="-30%" width="160%" height="160%">
      <feDropShadow dx="0" dy="18" stdDeviation="18" flood-color="#2d3a31" flood-opacity="0.22"/>
    </filter>
  </defs>
  <rect width="360" height="640" fill="url(#bg)"/>
  <circle cx="286" cy="108" r="54" fill="#fff8df" opacity="0.7"/>
  <circle cx="80" cy="520" r="90" fill="#ffffff" opacity="0.18"/>
  <path d="M58 565c62-50 180-50 244 0" fill="none" stroke="#607163" stroke-width="4" opacity="0.22"/>
  <g filter="url(#shadow)">
    <path d="M118 236c-23 23-37 61-37 105 0 96 55 176 121 176s106-76 106-170c0-71-32-129-83-147-1-34-22-60-51-60-31 0-53 27-56 65-22 5-43 15-60 31Z" fill="url(#body)"/>
    <path d="M224 196c18 9 40 13 62 4-14 26-34 39-59 37" fill="#e9ad3b"/>
    <path d="M130 210c-14-20-33-32-57-36 12 24 28 39 52 48" fill="#e9ad3b"/>
    <path d="M122 358c12 43 45 72 84 72 35 0 63-25 75-63-17 18-45 29-78 29-34 0-63-14-81-38Z" fill="#fff0bd" opacity="0.92"/>
    <circle cx="148" cy="294" r="13" fill="#252a27"/>
    <circle cx="238" cy="294" r="13" fill="#252a27"/>
    <circle cx="153" cy="289" r="4" fill="#fff"/>
    <circle cx="243" cy="289" r="4" fill="#fff"/>
    <circle cx="116" cy="329" r="14" fill="#ed8f7c" opacity="0.42"/>
    <circle cx="272" cy="329" r="14" fill="#ed8f7c" opacity="0.42"/>
    <path d="M177 330c10 9 25 9 35 0" fill="none" stroke="#2f342f" stroke-width="6" stroke-linecap="round"/>
    <path d="M95 365c-28 8-43 30-36 54 24-1 42-15 54-40" fill="#f3bf43"/>
    <path d="M286 367c28 9 42 31 34 55-24-2-41-16-52-41" fill="#f3bf43"/>
    <path d="M158 184c8-22 23-35 43-35 18 0 33 12 40 33-30-7-56-7-83 2Z" fill="#fff0bd"/>
    <path d="M186 152c10-28 25-45 46-53-1 31-10 55-28 72" fill="#f6c84e"/>
    <path d="M158 160c-11-28-28-43-50-49 4 30 16 52 36 67" fill="#f6c84e"/>
  </g>
  <g fill="#2d3a31" opacity="0.18">
    <circle cx="92" cy="108" r="5"/>
    <circle cx="112" cy="130" r="3"/>
    <circle cx="264" cy="500" r="4"/>
    <circle cx="292" cy="526" r="3"/>
  </g>
</svg>
